# xmcd
#
# Track frame offsets: 
#        150
#        13179
#        23765
#        35957
#        49311
#        62257
#        77941
#        93737
#
# Disc length: 1420 seconds
#
# Revision: 0
# Processed by: cddbd v1.5.2PL0 Copyright (c) Steve Scherf et al.
# Submitted via: ExactAudioCopy v0.95b4
#
DISCID=67058a08
DTITLE=Various Artist - Sunday Soul
DYEAR=2007
DGENRE=Soul
TTITLE0=Bob and Earl - Harlem Shuffle
TTITLE1=James Brown - Pappa's Got A Brand New Bag
TTITLE2=Dusty Springfield - Spooky
TTITLE3=Percy Sledge - When A Man Loves A Woman
TTITLE4=Marvin Gaye and Diana Ross - Stop Look Listen (To Your Heart)
TTITLE5=Ike and Tina Turner - Mississippi Rolling Stone
TTITLE6=The Three Degrees - I'll Be Around (Whenever You Want Me)
TTITLE7=The Right Blend - I Can See Clearly Now
EXTD=
EXTT0=
EXTT1=
EXTT2=
EXTT3=
EXTT4=
EXTT5=
EXTT6=
EXTT7=
PLAYORDER=
